<svg width="133" height="136" viewBox="0 0 133 136" fill="none" xmlns="http://www.w3.org/2000/svg">
<g clip-path="url(#clip0_664_30852)">
<rect width="133" height="136" rx="4" fill="white"/>
<path d="M133 0H0V41.6683H133V0Z" fill="#476635"/>
<path d="M133 48.8065H0V136H133V48.8065Z" fill="#5B8841"/>
<path d="M32.0764 20.2867C31.4318 20.0414 30.8231 19.7069 30.267 19.2922C29.7484 18.9047 29.3104 18.4148 28.9789 17.8514C28.6402 17.2499 28.4702 16.5641 28.4874 15.8698C28.4766 15.1431 28.6456 14.4254 28.9789 13.784C29.3004 13.1734 29.7414 12.6375 30.2743 12.2099C30.8199 11.7739 31.4347 11.4375 32.0916 11.2154C32.7538 10.9848 33.4482 10.8666 34.1476 10.8657C34.6977 10.8644 35.2463 10.924 35.7839 11.0435C36.2999 11.1571 36.8006 11.334 37.2752 11.5707C37.7311 11.7982 38.1549 12.0881 38.5351 12.4321C38.9116 12.7741 39.2298 13.1781 39.4766 13.6275C39.5279 13.7061 39.5611 13.7957 39.5738 13.8893C39.5865 13.983 39.5783 14.0784 39.5499 14.1684C39.5027 14.3325 39.4182 14.4827 39.3033 14.6067C39.1562 14.7407 38.9703 14.8215 38.7741 14.8366C38.5478 14.86 38.3218 14.7905 38.1452 14.6434C37.6716 14.0101 37.056 13.5034 36.3508 13.166C35.663 12.8737 34.9241 12.7297 34.1798 12.743C33.7194 12.7414 33.261 12.8065 32.8184 12.9362C32.3787 13.0611 31.9612 13.2566 31.5813 13.5155C31.214 13.7673 30.9033 14.0965 30.6699 14.4812C30.4299 14.8886 30.3072 15.3573 30.3159 15.8332C30.3007 16.3198 30.4488 16.7971 30.7356 17.1851C31.0287 17.5579 31.3903 17.8682 31.7996 18.0985C32.2458 18.3534 32.7191 18.555 33.21 18.6993C33.7209 18.8525 34.208 18.9883 34.6712 19.1068C35.3855 19.3347 36.0827 19.5921 36.7631 19.8792C37.4094 20.1466 38.0178 20.5012 38.5725 20.9338C39.0877 21.3368 39.5188 21.8418 39.84 22.4189C40.1726 23.0517 40.3374 23.7629 40.3181 24.4816C40.3295 25.2902 40.159 26.0906 39.8193 26.8204C39.4948 27.5071 39.0364 28.1185 38.4728 28.6166C37.8933 29.1257 37.226 29.5188 36.5052 29.7754C35.7499 30.0485 34.9543 30.1863 34.1534 30.1829C33.4828 30.1849 32.8154 30.09 32.1706 29.9009C31.5551 29.7201 30.9641 29.4605 30.4118 29.1283C29.8915 28.8198 29.4183 28.4346 29.0071 27.985C28.6232 27.5706 28.3122 27.0909 28.0882 26.5674C28.0189 26.449 27.9771 26.316 27.9657 26.1784C27.9542 26.0408 27.9737 25.9023 28.0224 25.7736C28.116 25.5691 28.2702 25.4001 28.4631 25.2908C28.5552 25.2296 28.6594 25.1905 28.7683 25.1765C28.8772 25.1624 28.9879 25.1738 29.0919 25.2097C29.3399 25.3251 29.5527 25.5074 29.7077 25.737C29.8951 26.1359 30.15 26.4975 30.4607 26.8049C30.777 27.1241 31.1352 27.3964 31.5247 27.6142C31.9308 27.841 32.3636 28.013 32.8126 28.126C33.2813 28.2454 33.7626 28.305 34.2455 28.3037C34.7632 28.3026 35.278 28.2226 35.7727 28.0661C36.2663 27.9145 36.7293 27.6731 37.1396 27.3534C37.5457 27.0361 37.8815 26.634 38.1246 26.1735C38.3828 25.673 38.5123 25.1133 38.5011 24.5472C38.5181 24.0465 38.3869 23.5523 38.1246 23.1297C37.8604 22.7363 37.52 22.403 37.1247 22.1505C36.6837 21.8655 36.2132 21.6317 35.7219 21.4533C35.2009 21.2601 34.6749 21.0748 34.1439 20.8971C33.4425 20.7402 32.7518 20.5362 32.0764 20.2867Z" fill="white"/>
<path d="M45.5679 29.0993C45.57 29.2212 45.5473 29.3422 45.5012 29.4546C45.4552 29.567 45.3869 29.6684 45.3006 29.7521C45.2161 29.8385 45.1156 29.9066 45.005 29.9524C44.8944 29.9982 44.7758 30.0207 44.6565 30.0187C44.5372 30.0208 44.4187 29.9983 44.3081 29.9525C44.1974 29.9067 44.0969 29.8386 44.0125 29.7521C43.926 29.6684 43.8576 29.5671 43.8116 29.4547C43.7655 29.3423 43.7429 29.2212 43.7451 29.0993V11.9376C43.7415 11.8143 43.7634 11.6917 43.8095 11.5778C43.8556 11.4639 43.9248 11.3615 44.0125 11.2771C44.0978 11.1924 44.1987 11.1257 44.3092 11.081C44.4197 11.0362 44.5377 11.0143 44.6565 11.0164C44.8964 11.0124 45.128 11.1062 45.3006 11.2771C45.3882 11.3615 45.4572 11.464 45.5033 11.5778C45.5494 11.6917 45.5714 11.8144 45.5679 11.9376V29.0993Z" fill="white"/>
<path d="M51.7327 14.7728L50.2132 12.546C50.116 12.4152 50.0584 12.258 50.0474 12.094C50.0322 11.9275 50.0548 11.7595 50.1134 11.6034C50.1708 11.4544 50.2624 11.3219 50.3807 11.2172C50.5024 11.1078 50.6596 11.0492 50.8213 11.053H50.8928C50.9919 11.0737 51.089 11.1035 51.1829 11.1419H51.2112C51.227 11.1594 51.2472 11.1721 51.2696 11.1786C51.2919 11.1851 51.3121 11.1978 51.3279 11.2152L51.3863 11.2442C51.4161 11.2653 51.4427 11.2907 51.4654 11.3195C51.4899 11.3485 51.5162 11.3795 51.5445 11.4084L51.5877 11.4817L61.7199 26.2834V11.9569C61.7181 11.8339 61.7411 11.7118 61.787 11.5982C61.833 11.4846 61.9013 11.3818 61.9875 11.2963C62.0732 11.2068 62.1759 11.1364 62.2893 11.0892C62.4026 11.042 62.5242 11.0192 62.6465 11.0221C62.7666 11.0184 62.8862 11.0409 62.9972 11.0881C63.1083 11.1354 63.2081 11.2064 63.2903 11.2963C63.3729 11.3839 63.4379 11.4873 63.4815 11.6007C63.5252 11.714 63.5465 11.8351 63.5445 11.9569V29.1032C63.548 29.3204 63.4737 29.5314 63.3356 29.6961C63.2008 29.8609 63.0132 29.9712 62.8064 30.0071C62.7495 30.019 62.6913 30.0241 62.6331 30.0225C62.5071 30.0257 62.3818 30.0022 62.2649 29.9537C62.148 29.9052 62.042 29.8327 61.9535 29.7406L61.8951 29.6517L61.8519 29.6072L51.7346 14.7766V29.1032C51.7367 29.2251 51.7139 29.3461 51.6679 29.4585C51.6219 29.5709 51.5536 29.6722 51.4672 29.756C51.3828 29.8425 51.2823 29.9106 51.1716 29.9564C51.061 30.0022 50.9425 30.0247 50.8232 30.0225C50.7039 30.0247 50.5854 30.0022 50.4747 29.9564C50.3641 29.9106 50.2638 29.8425 50.1794 29.756C50.0929 29.6723 50.0243 29.571 49.9782 29.4586C49.9322 29.3462 49.9096 29.2251 49.9118 29.1032V11.9703C49.9097 11.8485 49.9324 11.7275 49.9785 11.6151C50.0245 11.5027 50.093 11.4014 50.1794 11.3177C50.2638 11.2312 50.3641 11.1629 50.4747 11.1171C50.5854 11.0714 50.7039 11.0489 50.8232 11.0511H50.8947C50.9944 11.069 51.0918 11.0987 51.1847 11.1399H51.213C51.2288 11.1574 51.249 11.1702 51.2714 11.1767C51.2937 11.1832 51.3139 11.1959 51.3298 11.2133C51.3522 11.2147 51.3732 11.2251 51.3882 11.2423C51.4955 11.3244 51.5821 11.4317 51.6406 11.5552C51.7034 11.6841 51.7355 11.8263 51.7346 11.9703L51.7327 14.7728Z" fill="white"/>
<path d="M82.4177 14.3999C82.4183 14.5209 82.3956 14.6409 82.351 14.7529C82.3065 14.8649 82.2409 14.9668 82.158 15.0528C81.981 15.228 81.7449 15.3262 81.499 15.3269C81.382 15.333 81.2651 15.3128 81.1565 15.2678C81.0479 15.2227 80.9499 15.1539 80.8699 15.0662C80.1464 14.3202 79.2856 13.7294 78.3373 13.3281C77.4229 12.9444 76.4443 12.7476 75.4563 12.7487C74.4444 12.7424 73.4421 12.9495 72.5114 13.3571C71.6115 13.7477 70.7932 14.3122 70.1012 15.0199C69.4098 15.7314 68.8593 16.5735 68.48 17.4997C68.0818 18.4621 67.88 19.4979 67.887 20.5434C67.8809 21.5616 68.0728 22.5709 68.4517 23.512C68.8205 24.4332 69.3559 25.2746 70.0297 25.9918C70.7106 26.7117 71.5216 27.2889 72.4174 27.6914C73.3637 28.1174 74.3873 28.3326 75.4207 28.3228C76.3993 28.3355 77.3714 28.1593 78.2865 27.8033C79.241 27.4212 80.1045 26.8337 80.8191 26.0805C80.9935 25.9061 81.2271 25.8079 81.4707 25.8064C81.5874 25.8012 81.7038 25.8202 81.8132 25.8623C81.9225 25.9045 82.0226 25.969 82.1072 26.0517C82.1963 26.1365 82.2663 26.2402 82.3124 26.3556C82.3586 26.4709 82.3799 26.5952 82.3745 26.7198C82.3768 26.8403 82.3558 26.9602 82.3124 27.0723C82.2691 27.1843 82.2043 27.2864 82.1221 27.3726C81.2324 28.3045 80.1627 29.0355 78.9814 29.5184C77.8472 29.9755 76.6393 30.2094 75.4207 30.2078C74.5792 30.2099 73.7414 30.0922 72.9314 29.8582C72.1465 29.6348 71.3923 29.3103 70.6868 28.8925C69.9931 28.4778 69.3557 27.9714 68.7907 27.3862C68.2236 26.7998 67.7325 26.1409 67.3296 25.4258C66.9201 24.6979 66.6037 23.919 66.3881 23.1082C66.1638 22.2715 66.0517 21.4074 66.0548 20.5397C66.0542 19.7023 66.1611 18.8685 66.3729 18.0598C66.5801 17.2617 66.8846 16.4934 67.2788 15.7731C67.6722 15.0571 68.151 14.394 68.7041 13.7992C69.2615 13.1963 69.8947 12.6722 70.5871 12.2408C71.2976 11.8002 72.0618 11.4579 72.8599 11.2229C73.7049 10.9764 74.5798 10.8542 75.4584 10.8598C76.6779 10.8608 77.8852 11.1083 79.0115 11.5879C80.1808 12.0848 81.2411 12.817 82.1297 13.7414C82.2195 13.8247 82.2916 13.9263 82.3412 14.0397C82.3908 14.1531 82.4167 14.2757 82.4177 14.3999Z" fill="white"/>
<path d="M97.3026 11.6402C98.421 12.1277 99.4381 12.8305 100.299 13.7106C101.156 14.5922 101.844 15.6321 102.324 16.7756C102.827 17.9604 103.084 19.2398 103.078 20.532C103.08 21.4022 102.965 22.2685 102.737 23.1065C102.52 23.917 102.204 24.6959 101.795 25.4241C101.388 26.1401 100.892 26.7989 100.319 27.3843C99.7484 27.9713 99.106 28.4803 98.408 28.8985C97.698 29.3178 96.9387 29.6423 96.1485 29.8641C95.3309 30.0986 94.4854 30.2163 93.6364 30.2138C92.7881 30.2161 91.9436 30.0985 91.1266 29.8641C90.3364 29.6422 89.5769 29.3177 88.8669 28.8985C88.1718 28.4828 87.5342 27.9735 86.9708 27.3843C86.4053 26.7961 85.9138 26.1376 85.5078 25.4241C85.0966 24.6971 84.78 23.9179 84.5663 23.1065C84.3424 22.2677 84.2303 21.4017 84.233 20.532C84.2299 19.6643 84.342 18.8001 84.5663 17.9633C84.7819 17.1581 85.0983 16.3849 85.5078 15.6632C85.9128 14.9513 86.4044 14.2952 86.9708 13.7106C87.5369 13.1245 88.1741 12.6156 88.8669 12.1965C89.575 11.7732 90.335 11.4484 91.1266 11.2308C91.9445 11.0015 92.7886 10.8865 93.6364 10.889C94.8958 10.8788 96.1437 11.1345 97.3026 11.6402ZM90.6727 13.3784C89.7744 13.768 88.9584 14.3326 88.27 15.0412C87.585 15.7507 87.0376 16.5869 86.6564 17.5056C86.2575 18.4624 86.0555 19.4934 86.0631 20.5339C86.0549 21.582 86.2569 22.6207 86.6564 23.5854C87.0363 24.5072 87.5838 25.3462 88.27 26.0576C88.9584 26.7662 89.7744 27.3309 90.6727 27.7204C91.6132 28.1302 92.626 28.3373 93.6479 28.3288C94.6648 28.3362 95.6721 28.1291 96.6077 27.7204C97.5076 27.3296 98.3259 26.7651 99.018 26.0576C99.708 25.3478 100.259 24.5085 100.639 23.5854C101.039 22.6207 101.241 21.582 101.232 20.5339C101.24 19.4934 101.038 18.4624 100.639 17.5056C100.257 16.5856 99.7068 15.7491 99.018 15.0412C98.3258 14.3338 97.5075 13.7694 96.6077 13.3784C95.6721 12.9699 94.6648 12.7628 93.6479 12.7701C92.6268 12.7613 91.6146 12.9677 90.6745 13.3764L90.6727 13.3784Z" fill="white"/>
<path d="M20.1742 90.9192C18.7111 90.3967 17.322 89.6778 16.043 88.7812C14.8712 87.9631 13.871 86.9124 13.1018 85.6912C12.3312 84.4173 11.9387 82.941 11.972 81.4422C11.9515 79.8719 12.3416 78.3247 13.1018 76.9615C13.8478 75.6356 14.8554 74.4837 16.06 73.5797C17.3159 72.6367 18.7157 71.9142 20.2024 71.4417C21.7197 70.9462 23.3023 70.6934 24.8947 70.6924C26.1489 70.6913 27.4 70.8207 28.6287 71.0787C29.8019 71.3213 30.9442 71.701 32.0331 72.2104C33.0667 72.6948 34.0334 73.3169 34.9083 74.0607C35.7607 74.7864 36.4873 75.6549 37.057 76.6293C37.1725 76.7951 37.2477 76.9866 37.2765 77.1881C37.3054 77.3896 37.2868 77.5954 37.2225 77.7881C37.1121 78.1443 36.9183 78.4673 36.6578 78.7287C36.3161 79.0194 35.8938 79.1924 35.4508 79.223C34.9361 79.2707 34.4227 79.1169 34.014 78.7924C32.9119 77.4174 31.5077 76.3299 29.9166 75.6192C28.3371 74.9893 26.6533 74.6803 24.9588 74.7096C23.9092 74.7115 22.8644 74.8564 21.8519 75.1403C20.8536 75.4107 19.9012 75.8352 19.0274 76.3995C18.1958 76.9356 17.4857 77.6482 16.9449 78.4892C16.3971 79.3573 16.115 80.3736 16.1352 81.4074C16.0986 82.4673 16.4393 83.5045 17.0937 84.3256C17.7721 85.1346 18.5971 85.8009 19.5228 86.2879C20.5476 86.8377 21.6278 87.2709 22.7444 87.5799C23.9119 87.9095 25.0248 88.2018 26.0831 88.4567C27.715 88.946 29.3065 89.499 30.8581 90.1157C32.3246 90.6851 33.7133 91.4467 34.9895 92.3812C36.1533 93.234 37.1371 94.3192 37.8818 95.5717C38.6387 96.9205 39.0161 98.4582 38.972 100.014C38.9958 101.758 38.6048 103.481 37.8328 105.035C37.08 106.527 36.0335 107.842 34.7596 108.898C33.4207 110 31.8978 110.842 30.265 111.385C28.5331 111.974 26.7193 112.27 24.8947 112.262C23.3688 112.266 21.8494 112.062 20.3758 111.656C18.9782 111.275 17.6302 110.723 16.3611 110.012C15.1845 109.355 14.1065 108.528 13.1602 107.556C12.2904 106.676 11.5796 105.644 11.0607 104.51C10.9034 104.259 10.8077 103.972 10.7818 103.675C10.7559 103.378 10.8006 103.078 10.9119 102.803C11.1326 102.357 11.4851 101.994 11.9192 101.766C12.133 101.633 12.3719 101.549 12.62 101.518C12.8681 101.488 13.1196 101.513 13.3578 101.59C13.9158 101.832 14.4007 102.223 14.7625 102.722C15.1884 103.585 15.7625 104.363 16.4572 105.018C17.1859 105.708 18.0032 106.293 18.8863 106.756C19.8188 107.246 20.8067 107.615 21.8275 107.857C22.9002 108.115 23.9982 108.245 25.1 108.243C26.2793 108.242 27.4527 108.07 28.5855 107.733C29.7052 107.412 30.762 106.894 31.7092 106.202C32.6258 105.531 33.3918 104.666 33.9556 103.666C34.542 102.601 34.8387 101.395 34.8143 100.172C34.8514 99.0891 34.5505 98.0221 33.9556 97.1264C33.3438 96.2723 32.5678 95.5559 31.6754 95.0214C30.6636 94.4062 29.5903 93.9038 28.4742 93.5227C27.2842 93.1081 26.0836 92.7095 24.8722 92.3271C23.2793 91.958 21.7103 91.4878 20.1742 90.9192Z" fill="white"/>
<path d="M46.7824 91.4463C46.766 93.7062 47.2285 95.9428 48.1381 98.0012C49.019 99.9999 50.2707 101.804 51.8231 103.312C53.415 104.848 55.2761 106.06 57.3081 106.885C59.4682 107.768 61.775 108.212 64.1001 108.193C65.9491 108.211 67.7902 107.942 69.5608 107.395C71.1676 106.898 72.6812 106.127 74.0384 105.114C75.3396 104.136 76.4589 102.926 77.343 101.541C78.252 100.109 78.9169 98.5286 79.309 96.8676H69.1314C68.8629 96.8736 68.5959 96.8244 68.3462 96.7229C68.0966 96.6214 67.8694 96.4696 67.6778 96.2765C67.4873 96.0958 67.336 95.876 67.2335 95.6315C67.131 95.387 67.0796 95.1232 67.0827 94.857C67.0821 94.5961 67.1347 94.3379 67.2372 94.0991C67.3397 93.8603 67.4898 93.6461 67.6778 93.4703C67.8694 93.2773 68.0968 93.1256 68.3465 93.0241C68.5961 92.9226 68.8629 92.8735 69.1314 92.8794H81.6569C82.2285 92.8857 82.7812 93.0899 83.2255 93.4588C83.4337 93.6288 83.5983 93.8484 83.7049 94.0985C83.8116 94.3486 83.8572 94.6215 83.8376 94.8937C83.6136 97.2966 82.9343 99.6315 81.8378 101.767C80.7684 103.856 79.3284 105.722 77.5917 107.27C75.8018 108.852 73.7475 110.089 71.5284 110.922C69.1419 111.819 66.6174 112.267 64.0758 112.245C62.1419 112.251 60.2151 112.004 58.342 111.511C56.5431 111.043 54.8098 110.34 53.1845 109.421C51.6126 108.529 50.1572 107.435 48.8536 106.167C47.5667 104.919 46.4444 103.503 45.5152 101.957C44.5869 100.409 43.8644 98.7408 43.3667 96.9969C42.8584 95.2043 42.6047 93.3459 42.6135 91.4791C42.6131 89.6338 42.8667 87.7977 43.3667 86.0251C43.8527 84.2825 44.564 82.6145 45.4814 81.0655C46.4034 79.5138 47.52 78.0931 48.8028 76.8398C50.1058 75.5626 51.561 74.4594 53.1337 73.5565C54.7519 72.6278 56.4786 71.9139 58.2724 71.432C60.1551 70.9268 62.0939 70.6749 64.0399 70.6826C66.8526 70.6683 69.6432 71.1924 72.2685 72.2277C74.908 73.2843 77.3211 74.8587 79.3729 76.8629C79.5764 77.032 79.7401 77.2461 79.8516 77.4893C79.9632 77.7324 80.0197 77.9982 80.0169 78.2669C80.0113 78.531 79.9542 78.7913 79.8491 79.0324C79.744 79.2735 79.5931 79.4907 79.405 79.6711C79.0127 80.0527 78.4919 80.2643 77.9512 80.262C77.6773 80.2711 77.4044 80.2234 77.1488 80.1218C76.8932 80.0203 76.6603 79.8671 76.4638 79.6711C74.7859 78.0595 72.8152 76.8021 70.6641 75.9706C68.559 75.1497 66.3259 74.7282 64.0737 74.7269C61.8003 74.7153 59.5457 75.1484 57.4307 76.0034C55.398 76.8152 53.5317 78.0108 51.9286 79.5281C50.3515 81.0297 49.077 82.8342 48.1776 84.8392C47.2434 86.9092 46.767 89.1654 46.7824 91.4463Z" fill="white"/>
<path d="M99.2535 70.9994C101.186 70.9934 103.113 71.2347 104.987 71.7179C106.776 72.1763 108.502 72.8621 110.126 73.7593C111.7 74.6327 113.165 75.6982 114.489 76.9325C115.789 78.1408 116.923 79.5254 117.859 81.0481C118.791 82.5733 119.52 84.2199 120.025 85.9439C120.546 87.7288 120.807 89.583 120.8 91.4463C120.824 94.2165 120.245 96.9573 119.106 99.4691C117.992 101.918 116.42 104.118 114.479 105.945C112.484 107.813 110.163 109.28 107.638 110.267C104.966 111.321 102.124 111.851 99.261 111.83H92.1565C91.6115 111.839 91.0842 111.632 90.6858 111.25C90.4906 111.076 90.3348 110.86 90.2291 110.617C90.1234 110.375 90.0705 110.112 90.074 109.846V72.9752C90.0673 72.7069 90.1187 72.4404 90.2245 72.1949C90.3303 71.9495 90.4879 71.7312 90.6858 71.5557C91.0893 71.1851 91.615 70.9855 92.1565 70.9975L99.2535 70.9994ZM99.3532 75.0551H94.2316V107.814H99.2875C101.596 107.832 103.887 107.41 106.045 106.57C108.075 105.788 109.941 104.619 111.547 103.125C113.105 101.667 114.364 99.9047 115.249 97.9414C116.163 95.9068 116.626 93.69 116.605 91.4502C116.62 89.2265 116.157 87.0267 115.249 85.0073C114.369 83.041 113.116 81.2737 111.564 79.8081C109.962 78.31 108.102 77.1311 106.079 76.3318C103.937 75.4716 101.654 75.0364 99.3532 75.0494V75.0551Z" fill="white"/>
</g>
<defs>
<clipPath id="clip0_664_30852">
<rect width="133" height="136" rx="4" fill="white"/>
</clipPath>
</defs>
</svg>
