<svg width="160" height="24" viewBox="0 0 160 24" fill="none" xmlns="http://www.w3.org/2000/svg">
<path d="M17.0264 12.3447H14.5039L14.4902 11.2852H16.7803C17.1585 11.2852 17.4889 11.2214 17.7715 11.0938C18.054 10.9661 18.2728 10.7839 18.4277 10.5469C18.5872 10.3053 18.667 10.0182 18.667 9.68555C18.667 9.32096 18.5964 9.02474 18.4551 8.79688C18.3184 8.56445 18.1064 8.39583 17.8193 8.29102C17.5368 8.18164 17.1768 8.12695 16.7393 8.12695H14.7979V17H13.4785V7.04688H16.7393C17.2497 7.04688 17.7054 7.09928 18.1064 7.2041C18.5075 7.30436 18.847 7.46387 19.125 7.68262C19.4076 7.89681 19.6217 8.17025 19.7676 8.50293C19.9134 8.83561 19.9863 9.23438 19.9863 9.69922C19.9863 10.1094 19.8815 10.4808 19.6719 10.8135C19.4622 11.1416 19.1706 11.4105 18.7969 11.6201C18.4277 11.8298 17.9948 11.9642 17.498 12.0234L17.0264 12.3447ZM16.9648 17H13.9844L14.7295 15.9268H16.9648C17.3841 15.9268 17.7396 15.8538 18.0312 15.708C18.3275 15.5622 18.5531 15.3571 18.708 15.0928C18.863 14.8239 18.9404 14.5072 18.9404 14.1426C18.9404 13.7734 18.8743 13.4544 18.7422 13.1855C18.61 12.9167 18.4027 12.7093 18.1201 12.5635C17.8376 12.4176 17.473 12.3447 17.0264 12.3447H15.1465L15.1602 11.2852H17.7305L18.0107 11.668C18.4893 11.709 18.8949 11.8457 19.2275 12.0781C19.5602 12.306 19.8132 12.5977 19.9863 12.9531C20.1641 13.3086 20.2529 13.7005 20.2529 14.1289C20.2529 14.7487 20.1162 15.2728 19.8428 15.7012C19.5739 16.125 19.1934 16.4486 18.7012 16.6719C18.209 16.8906 17.6302 17 16.9648 17ZM24.0879 16.2344L26.1455 9.60352H27.499L24.5322 18.1416C24.4639 18.3239 24.3727 18.5199 24.2588 18.7295C24.1494 18.9437 24.0081 19.1465 23.835 19.3379C23.6618 19.5293 23.4521 19.6842 23.2061 19.8027C22.9645 19.9258 22.6751 19.9873 22.3379 19.9873C22.2376 19.9873 22.11 19.9736 21.9551 19.9463C21.8001 19.9189 21.6908 19.8962 21.627 19.8779L21.6201 18.8525C21.6566 18.8571 21.7135 18.8617 21.791 18.8662C21.873 18.8753 21.93 18.8799 21.9619 18.8799C22.249 18.8799 22.4928 18.8411 22.6934 18.7637C22.8939 18.6908 23.0625 18.5654 23.1992 18.3877C23.3405 18.2145 23.4613 17.9753 23.5615 17.6699L24.0879 16.2344ZM22.5771 9.60352L24.498 15.3457L24.8262 16.6787L23.917 17.1436L21.1963 9.60352H22.5771Z" fill="#C1C4D6"/>
<g clip-path="url(#clip0_505_31662)">
<path d="M48.1314 23.9215L55.4144 16.6957L51.009 7.88721L41.0414 7.91252L48.1314 23.9215Z" fill="#C1C4D6"/>
<path d="M41 7.23341H63.9776L70.4738 0L46.9208 0.0641075L41 7.23341Z" fill="#C1C4D6"/>
<path d="M79.1947 16.3633L71.4271 0.0194092L64.4666 7.69655L68.8217 16.3625L79.1947 16.3633Z" fill="#C1C4D6"/>
<path d="M56.0153 17.0197L49.098 23.9215H73.369L79.1947 17.0189L56.0153 17.0197Z" fill="#C1C4D6"/>
<path d="M95.9254 8.42474C95.4089 8.07277 94.8512 7.77973 94.2637 7.55156C93.647 7.30775 93.0038 7.07407 92.343 6.85557C92.1204 6.79145 91.8681 6.71692 91.5861 6.63199C91.3033 6.54763 91.0125 6.44807 90.7227 6.33671C90.4265 6.22307 90.1387 6.0906 89.861 5.9402C89.5903 5.79442 89.3406 5.61548 89.1182 5.40787C88.9023 5.20538 88.7237 4.96952 88.5896 4.71018C88.4518 4.4324 88.387 4.12654 88.401 3.81929C88.3894 3.36085 88.519 2.90927 88.7737 2.52092C89.021 2.15766 89.3429 1.84647 89.72 1.6064C90.1023 1.36311 90.5234 1.18103 90.9667 1.06731C91.3814 0.956439 91.8094 0.898018 92.2399 0.89352C92.6035 0.893372 92.9664 0.923572 93.3245 0.983785C93.682 1.0441 94.0304 1.14669 94.3615 1.28918C94.7029 1.43679 95.0218 1.62808 95.3095 1.85781C95.6256 2.11378 95.9058 2.40783 96.1431 2.73266C96.2224 2.80849 96.3288 2.85256 96.4408 2.85585H96.4567C96.5555 2.85409 96.6508 2.81981 96.7263 2.75882C96.7958 2.70977 96.8459 2.63957 96.8682 2.55972C96.8824 2.51471 96.886 2.46726 96.8788 2.42075C96.8717 2.37423 96.8539 2.32978 96.8268 2.2906C96.6069 1.93081 96.3321 1.60438 96.0118 1.32209C95.6915 1.04153 95.3328 0.803998 94.9457 0.615978C94.5423 0.42183 94.1152 0.276703 93.6743 0.184012C93.204 0.0855131 92.7239 0.0365682 92.2425 0.0380579C91.6814 0.0424767 91.1242 0.127814 90.5896 0.291167C90.0413 0.452859 89.5243 0.699359 89.0592 1.02091C88.6021 1.33806 88.2187 1.74254 87.9332 2.20878C87.6385 2.70287 87.4884 3.26389 87.4988 3.83278C87.4828 4.38077 87.6413 4.92043 87.9534 5.38002C88.2571 5.80766 88.6436 6.17565 89.0918 6.4641C89.5565 6.76391 90.0562 7.01053 90.5808 7.19892C91.1095 7.39211 91.6258 7.55494 92.1025 7.68317C92.6672 7.87384 93.2302 8.07463 93.7765 8.28048C94.2849 8.46935 94.771 8.70914 95.2267 8.99588C95.6292 9.2477 95.9762 9.57275 96.2479 9.95258C96.5118 10.3485 96.6459 10.811 96.6329 11.2805C96.6447 11.8425 96.5141 12.3989 96.2523 12.902C96.0095 13.3541 95.6692 13.7518 95.254 14.0687C94.8401 14.3812 94.3702 14.6188 93.8672 14.7698C93.3669 14.9237 92.8447 15.0028 92.3192 15.0043C91.8373 15.0044 91.3574 14.9458 90.891 14.8297C90.4375 14.7191 90.0005 14.5538 89.5905 14.3378C89.2008 14.133 88.8446 13.8747 88.5332 13.571C88.2362 13.2845 87.9972 12.9479 87.8283 12.578C87.646 12.3384 87.4415 12.2659 87.2204 12.3612C87.121 12.4031 87.0402 12.4771 86.9922 12.5704C86.9669 12.6296 86.9566 12.6937 86.9619 12.7574C86.9673 12.8212 86.9882 12.8828 87.023 12.9374C87.2133 13.3654 87.4818 13.7573 87.816 14.0949C88.1732 14.4597 88.5843 14.7723 89.0363 15.0229C89.5146 15.2876 90.0259 15.4937 90.5579 15.6362C91.112 15.7865 91.6852 15.8623 92.261 15.8615C92.9261 15.862 93.5867 15.7574 94.2161 15.5518C94.8313 15.3542 95.4027 15.049 95.9016 14.6517C96.3955 14.2544 96.7981 13.7635 97.0841 13.2099C97.3886 12.6109 97.5416 11.9517 97.5308 11.2855C97.5467 10.7038 97.3942 10.1292 97.0902 9.62525C96.79 9.15435 96.3938 8.74608 95.9254 8.42474Z" fill="#C1C4D6"/>
<path d="M102.661 0.172923C102.546 0.171716 102.435 0.214194 102.353 0.291046C102.31 0.329778 102.276 0.376787 102.253 0.428993C102.231 0.481199 102.22 0.537396 102.222 0.593896V15.2843C102.22 15.3407 102.231 15.3967 102.253 15.4488C102.276 15.5008 102.31 15.5477 102.353 15.5863C102.394 15.6244 102.442 15.6545 102.495 15.6748C102.548 15.695 102.604 15.7051 102.661 15.7044C102.78 15.7072 102.896 15.6647 102.982 15.5863C103.025 15.5477 103.059 15.5008 103.081 15.4488C103.104 15.3967 103.115 15.3407 103.113 15.2843V0.593072C103.115 0.536579 103.104 0.480367 103.081 0.428169C103.059 0.375971 103.025 0.328961 102.982 0.290196C102.895 0.212242 102.78 0.170105 102.661 0.172923Z" fill="#C1C4D6"/>
<path d="M119.915 0.17291C119.854 0.171705 119.794 0.182148 119.738 0.203599C119.682 0.225051 119.631 0.25708 119.589 0.297778C119.546 0.337623 119.512 0.385543 119.489 0.438532C119.466 0.49152 119.455 0.548425 119.456 0.6057V13.9682L109.444 0.351768C109.406 0.318494 109.365 0.288548 109.321 0.262326L109.263 0.230272C109.248 0.217085 109.228 0.209619 109.207 0.209186C109.163 0.194497 109.118 0.186254 109.072 0.184728C108.956 0.182955 108.843 0.225408 108.759 0.302824C108.716 0.341304 108.681 0.388251 108.658 0.440488C108.636 0.492726 108.625 0.549053 108.626 0.6057V15.2851C108.625 15.3418 108.636 15.3981 108.658 15.4503C108.681 15.5026 108.716 15.5495 108.759 15.588C108.843 15.6654 108.956 15.7079 109.072 15.7061C109.192 15.709 109.309 15.6666 109.397 15.588C109.441 15.5495 109.475 15.5026 109.498 15.4503C109.521 15.3981 109.532 15.3418 109.53 15.2851V1.88466L119.535 15.5281C119.555 15.5598 119.58 15.5883 119.61 15.6124C119.684 15.6707 119.778 15.7031 119.874 15.7044H119.913C120.029 15.7056 120.141 15.6632 120.226 15.5863C120.269 15.5478 120.303 15.5009 120.326 15.4486C120.349 15.3964 120.36 15.3401 120.359 15.2834V0.604027C120.36 0.547449 120.35 0.491154 120.328 0.438429C120.307 0.385703 120.275 0.337592 120.233 0.296929C120.192 0.256168 120.143 0.224077 120.088 0.202724C120.033 0.181371 119.974 0.171223 119.915 0.17291Z" fill="#C1C4D6"/>
<path d="M127.011 4.40382C127.334 3.88136 127.725 3.39956 128.173 2.96961C128.622 2.53866 129.129 2.16673 129.68 1.86359C130.676 1.31815 131.788 0.995377 132.932 0.919407C134.076 0.843437 135.224 1.01625 136.289 1.4249C137.222 1.78656 138.071 2.32386 138.784 3.00504C138.825 3.04692 138.875 3.0803 138.93 3.1031C138.985 3.12591 139.044 3.13768 139.104 3.13768C139.164 3.13768 139.224 3.12591 139.279 3.1031C139.334 3.0803 139.384 3.04692 139.425 3.00504C139.468 2.96785 139.503 2.92234 139.527 2.87147C139.551 2.82059 139.563 2.76548 139.563 2.70976C139.563 2.65404 139.551 2.59895 139.527 2.54807C139.503 2.4972 139.468 2.45169 139.425 2.4145C138.627 1.6539 137.682 1.05005 136.642 0.636948C135.64 0.241851 134.567 0.0380607 133.484 0.037092C131.954 0.0276991 130.451 0.417658 129.135 1.16505C128.518 1.51671 127.952 1.94507 127.452 2.43896C126.96 2.9256 126.533 3.46985 126.183 4.05877C125.835 4.64696 125.565 5.27439 125.378 5.92659C124.995 7.28065 124.999 8.7085 125.39 10.0604C125.584 10.7212 125.865 11.3552 126.228 11.9468C126.588 12.5327 127.026 13.0715 127.531 13.5498C128.035 14.0291 128.602 14.4432 129.219 14.7815C129.849 15.1256 130.522 15.3926 131.222 15.5762C131.951 15.7674 132.703 15.8634 133.458 15.8613C134.538 15.861 135.607 15.6717 136.615 15.3028C137.662 14.915 138.611 14.3196 139.4 13.5557C139.483 13.4759 139.531 13.3677 139.532 13.2545C139.535 13.1977 139.526 13.1408 139.503 13.0883C139.48 13.0357 139.444 12.989 139.4 12.9516C139.359 12.9129 139.311 12.8824 139.259 12.862C139.206 12.8415 139.149 12.8316 139.092 12.8327C139.029 12.8339 138.968 12.8472 138.911 12.8716C138.853 12.8961 138.802 12.9314 138.759 12.9752C138.054 13.6521 137.208 14.1785 136.275 14.52C135.374 14.8428 134.419 15.0077 133.456 15.0067C132.767 15.0097 132.082 14.9206 131.419 14.7418C130.79 14.5712 130.187 14.3245 129.624 14.0079C127.97 13.0767 126.761 11.5651 126.252 9.79384C126.081 9.19657 125.995 8.57994 125.997 7.96063C125.996 7.32691 126.085 6.69599 126.261 6.08518C126.432 5.49533 126.684 4.92991 127.011 4.40382Z" fill="#C1C4D6"/>
<path d="M159.696 5.8515C159.498 5.1904 159.212 4.5564 158.845 3.96509C158.481 3.38092 158.038 2.84464 157.529 2.36977C155.944 0.884924 153.812 0.0570101 151.594 0.0649362C150.469 0.057754 149.353 0.268081 148.314 0.683329C147.324 1.07966 146.42 1.6522 145.653 2.37062C144.894 3.0871 144.288 3.93775 143.867 4.87539C143.438 5.84985 143.216 6.8969 143.216 7.95469C143.216 9.01248 143.438 10.0595 143.867 11.034C144.287 11.9755 144.894 12.8303 145.653 13.5514C147.236 15.0441 149.373 15.8752 151.594 15.863C152.348 15.8652 153.098 15.7693 153.825 15.5779C154.524 15.3927 155.197 15.1258 155.828 14.7831C156.45 14.4441 157.022 14.0279 157.529 13.5455C158.036 13.0657 158.478 12.5272 158.845 11.9426C159.213 11.3521 159.499 10.7179 159.696 10.0562C160.1 8.68133 160.1 7.22638 159.696 5.8515ZM159.079 7.95047C159.085 8.89715 158.884 9.83456 158.492 10.7033C158.112 11.5423 157.568 12.3036 156.888 12.9457C156.202 13.5884 155.395 14.1006 154.509 14.455C152.642 15.1926 150.545 15.1926 148.677 14.455C147.792 14.1001 146.985 13.588 146.298 12.9457C145.619 12.3044 145.077 11.5428 144.702 10.7033C144.318 9.83403 144.121 8.90001 144.121 7.95639C144.121 7.01278 144.318 6.07873 144.702 5.20947C145.076 4.37127 145.619 3.61145 146.298 2.97297C146.986 2.33385 147.793 1.82392 148.677 1.46961C150.545 0.731873 152.642 0.731873 154.509 1.46961C155.394 1.82353 156.2 2.3335 156.888 2.97297C157.569 3.61214 158.113 4.37168 158.492 5.20947C158.884 6.07414 159.085 7.00756 159.081 7.95047H159.079Z" fill="#C1C4D6"/>
<path d="M148.034 18.9693C148.067 18.9699 148.099 18.9639 148.13 18.9519C148.16 18.9398 148.188 18.9219 148.21 18.8993C148.256 18.8539 148.28 18.7933 148.279 18.7306C148.28 18.6993 148.274 18.6681 148.262 18.6391C148.249 18.6101 148.231 18.5838 148.208 18.5618C148.184 18.54 148.157 18.5228 148.127 18.5114C148.096 18.4999 148.064 18.4944 148.031 18.4952H145.401C145.337 18.4938 145.274 18.5141 145.224 18.5525C145.196 18.5735 145.174 18.6004 145.158 18.6311C145.143 18.6619 145.135 18.6956 145.136 18.7297V23.7452C145.136 23.8047 145.156 23.8627 145.194 23.9097C145.216 23.9352 145.242 23.956 145.273 23.9705C145.303 23.9851 145.337 23.9931 145.371 23.994H148.031C148.063 23.9945 148.096 23.9884 148.126 23.9762C148.157 23.964 148.184 23.946 148.207 23.9232C148.252 23.8775 148.276 23.8171 148.276 23.7544C148.276 23.7242 148.27 23.6941 148.258 23.6661C148.246 23.6382 148.228 23.6128 148.205 23.5916C148.182 23.5698 148.154 23.5526 148.124 23.5412C148.094 23.5297 148.061 23.5242 148.029 23.525H145.64V21.4741H147.402C147.467 21.4758 147.53 21.4541 147.579 21.4133C147.603 21.3922 147.623 21.3662 147.636 21.3371C147.65 21.3079 147.656 21.2764 147.655 21.2446C147.656 21.2131 147.649 21.1818 147.636 21.1528C147.623 21.1237 147.604 21.0976 147.58 21.0759C147.532 21.0336 147.469 21.0106 147.404 21.0118H145.642V18.9684L148.034 18.9693Z" fill="#C1C4D6"/>
<path d="M153.009 21.1493C153.153 21.0122 153.268 20.8494 153.347 20.6701C153.43 20.4792 153.471 20.2743 153.469 20.0677C153.471 19.8513 153.425 19.6369 153.336 19.4384C153.249 19.2498 153.122 19.0801 152.965 18.9398C152.804 18.7981 152.616 18.6873 152.412 18.6133C152.196 18.5349 151.967 18.4954 151.736 18.4969H150.261C150.197 18.4961 150.135 18.5194 150.09 18.5618C150.065 18.5833 150.046 18.6094 150.033 18.6385C150.02 18.6675 150.013 18.6989 150.014 18.7306V23.7629C150.013 23.7944 150.019 23.8257 150.032 23.8548C150.045 23.8839 150.064 23.9101 150.088 23.9316C150.136 23.972 150.198 23.9942 150.262 23.9942C150.326 23.9942 150.388 23.972 150.436 23.9316C150.46 23.9101 150.479 23.8839 150.492 23.8549C150.505 23.8258 150.511 23.7945 150.511 23.7629V21.626H151.48L152.994 23.8793C153.024 23.9271 153.07 23.9639 153.125 23.9839C153.153 23.9944 153.183 23.9998 153.213 24C153.243 24 153.273 23.9943 153.301 23.9831C153.335 23.9725 153.366 23.9547 153.392 23.9308C153.418 23.907 153.437 23.8778 153.449 23.8456C153.462 23.8113 153.466 23.7749 153.462 23.7388C153.458 23.7027 153.445 23.668 153.425 23.6372L152.045 21.6032C152.202 21.5801 152.355 21.5378 152.5 21.4775C152.689 21.3987 152.862 21.2875 153.009 21.1493ZM152.972 20.0593C152.973 20.2042 152.943 20.3478 152.884 20.4811C152.824 20.6124 152.739 20.7314 152.632 20.8312C152.52 20.9347 152.388 21.016 152.243 21.0708C152.084 21.1297 151.915 21.1583 151.744 21.1552H150.511V18.9617H151.731C151.903 18.9599 152.073 18.9885 152.233 19.0461C152.379 19.0979 152.512 19.1764 152.625 19.2773C152.734 19.3753 152.821 19.4935 152.881 19.6248C152.943 19.762 152.974 19.91 152.972 20.0593Z" fill="#C1C4D6"/>
<path d="M158.223 18.9432C158.062 18.8017 157.875 18.6909 157.67 18.6167C157.454 18.5385 157.225 18.4991 156.994 18.5002H155.519C155.453 18.4988 155.39 18.5221 155.343 18.5652C155.319 18.5868 155.299 18.6129 155.286 18.642C155.274 18.671 155.267 18.7024 155.268 18.7339V23.7663C155.267 23.7978 155.274 23.8292 155.287 23.8582C155.299 23.8873 155.319 23.9134 155.343 23.935C155.39 23.9765 155.452 23.9994 155.516 23.9994C155.58 23.9994 155.642 23.9765 155.689 23.935C155.713 23.9136 155.732 23.8874 155.746 23.8584C155.759 23.8293 155.765 23.7979 155.765 23.7663V21.626H156.989C157.22 21.6275 157.449 21.5889 157.665 21.5121C157.869 21.4396 158.057 21.3302 158.218 21.1898C158.376 21.0511 158.502 20.8828 158.588 20.6954C158.679 20.498 158.725 20.2843 158.722 20.0686C158.725 19.8521 158.679 19.6376 158.588 19.4392C158.503 19.252 158.378 19.0833 158.223 18.9432ZM158.23 20.0627C158.231 20.2076 158.201 20.3513 158.142 20.4845C158.082 20.6158 157.997 20.7348 157.89 20.8346C157.778 20.938 157.646 21.0194 157.502 21.0742C157.343 21.1328 157.174 21.1615 157.003 21.1586H155.77V18.9651H156.989C157.161 18.9633 157.331 18.9919 157.492 19.0495C157.637 19.1013 157.77 19.1798 157.884 19.2806C157.995 19.3804 158.083 19.5011 158.142 19.6351C158.202 19.7691 158.232 19.9136 158.231 20.0593L158.23 20.0627Z" fill="#C1C4D6"/>
</g>
<defs>
<clipPath id="clip0_505_31662">
<rect width="119" height="24" fill="white" transform="translate(41)"/>
</clipPath>
</defs>
</svg>
